<svg xmlns="http://www.w3.org/2000/svg" xmlns:xlink="http://www.w3.org/1999/xlink" id="Layer_1" x="0px" y="0px" viewBox="0 0 1920 300" style="enable-background:new 0 0 1920 300;" xml:space="preserve"><style type="text/css">	.st0{fill:#DDF0FF;}	.st1{clip-path:url(#SVGID_2_);}	.st2{fill:url(#SVGID_3_);}	.st3{fill:url(#SVGID_4_);}	.st4{fill:url(#SVGID_5_);}	.st5{fill:url(#SVGID_6_);}	.st6{fill:url(#SVGID_7_);}	.st7{fill:url(#SVGID_8_);}	.st8{fill:#26ACF0;}	.st9{fill:#0097EA;}	.st10{fill:#50A0E2;}	.st11{fill:#3884D1;}	.st12{clip-path:url(#SVGID_10_);}	.st13{fill:url(#SVGID_11_);}	.st14{fill:url(#SVGID_12_);}	.st15{fill:url(#SVGID_13_);}	.st16{fill:url(#SVGID_14_);}	.st17{fill:url(#SVGID_15_);}	.st18{fill:url(#SVGID_16_);}	.st19{clip-path:url(#SVGID_18_);}	.st20{fill:url(#SVGID_19_);}	.st21{fill:url(#SVGID_20_);}	.st22{fill:url(#SVGID_21_);}	.st23{fill:url(#SVGID_22_);}	.st24{fill:url(#SVGID_23_);}	.st25{fill:url(#SVGID_24_);}</style><rect class="st0" width="1920" height="300"></rect><g>	<defs>		<rect id="SVGID_17_" width="1920" height="300"></rect>	</defs>	<clipPath id="SVGID_2_">		<use xlink:href="#SVGID_17_" style="overflow:visible;"></use>	</clipPath>	<g class="st1">		<g>							<linearGradient id="SVGID_3_" gradientUnits="userSpaceOnUse" x1="-6052.3623" y1="-1303.859" x2="-3709.3091" y2="-1303.859" gradientTransform="matrix(-0.91 -0.4145 -0.4145 0.91 -3143.1946 -837.3246)">				<stop offset="0" style="stop-color:#3884D1"></stop>				<stop offset="1" style="stop-color:#50A0E2;stop-opacity:0"></stop>			</linearGradient>			<path class="st2" d="M724.6-366.1c46.87,2.92,94.19,2.13,141.77-1.87c2.37,2.28-26.4,93.17-23.96,95.42     c52.87,50.36,122.73,93.3,150.08,104.6c233.74,130.92,511.04,150.77,786.27,154.41c388.57,2.89,790.25-11.28,1100.31,177.3     c13.52,8.5,25.99,16.09,37.55,22.84c5.07,78.04,22.32,58.28,19.4,123.98c-2.28,74.43-5.07,137.94-27.49,159.07     c-22.8,22.1-65.22,1.82-155.23-68.79c-288.78-219.79-689.75-247.44-1075.92-290.71c-273.37-32.23-547.1-80.79-765.96-235.3     c-26.03-14.08-91.05-64.04-138.39-119.63C725.07-299.17,694.79-359.22,724.6-366.1z"></path>			<g>									<linearGradient id="SVGID_4_" gradientUnits="userSpaceOnUse" x1="-5878.7642" y1="233.4376" x2="-4927.731" y2="233.4376" gradientTransform="matrix(-0.6147 -0.215 0.113 -0.3232 -1555.0118 -1026.3503)">					<stop offset="0" style="stop-color:#3884D1"></stop>					<stop offset="1" style="stop-color:#50A0E2;stop-opacity:0"></stop>				</linearGradient>				<path class="st3" d="M2306.88,273.04c-133.74,33.03-259.21,17.9-353.79-22.17c-99.39-43.67-172.91-117.54-267.37-188.16      c-83.23-64.15-169.43-101.84-258.61-122.6c-79.17-20.54-168.46-21.75-244.14-70.59c-14.32-62.06-51.18-64.36-69.14-124.88      c235.35-12.3,441.7,99.69,640.64,211.39c200.54,112.07,393.66,223.86,639.45,219.88      C2356.64,229.27,2346.69,219.71,2306.88,273.04z"></path>			</g>			<g>									<linearGradient id="SVGID_5_" gradientUnits="userSpaceOnUse" x1="-4507.1064" y1="318.5375" x2="-2813.7532" y2="318.5375" gradientTransform="matrix(-0.8978 -0.4404 0.2279 -0.4647 -1699.9346 -1360.3953)">					<stop offset="0" style="stop-color:#50A0E2;stop-opacity:0"></stop>					<stop offset="1" style="stop-color:#3884D1"></stop>				</linearGradient>				<path class="st4" d="M2418.29,565.63c-365.33-9.56-508.53-250.29-773.49-430.23C1474.58,18.33,1310.94-49.32,1147.33-70.48      c-127.36-17.73-280.2-38.41-424.19-95.29c-15.64-118.84-45.87-207.72-70.15-325.24c379.88,40.83,700.81,261.51,1008.42,477.16      c310.77,216.84,608.22,428.62,1014.01,479.19C2581.42,509.78,2502.85,523.3,2418.29,565.63z"></path>			</g>		</g>		<g>							<linearGradient id="SVGID_6_" gradientUnits="userSpaceOnUse" x1="-4963.9937" y1="-641.9354" x2="-2538.354" y2="-641.9354" gradientTransform="matrix(-0.8595 -0.5111 -0.5111 0.8595 -3139.3357 -1090.5027)">				<stop offset="0" style="stop-color:#50A0E2;stop-opacity:0"></stop>				<stop offset="1" style="stop-color:#3884D1"></stop>			</linearGradient>			<path class="st5" d="M-692.62-226.56c47.9,8.29,96.69,12.81,146.11,14.05c2.18,2.61-37.67,92.91-35.41,95.5     C-533.19-59.22-466.13-7.16-439.26,7.55c225.79,161.07,508.94,212.73,791.78,247.49c399.56,46.76,814.54,77.42,1112.39,306.43     c12.96,10.27,24.94,19.48,36.06,27.74c-3.58,80.89,16.41,62.49,5.99,129.77c-10.73,76.34-20.75,141.38-46.21,160.6     c-25.95,20.17-67.32-5.47-152-88.28C1036.32,532.57,626.78,458.94,234.24,370.91C-43.46,306.94-319.7,226.14-527.53,42.47     c-25.2-17.42-86.49-76.17-128.95-138.7C-699.68-157.62-724.08-222.83-692.62-226.56z"></path>			<g>									<linearGradient id="SVGID_7_" gradientUnits="userSpaceOnUse" x1="-4057.72" y1="-1310.1097" x2="-3073.1895" y2="-1310.1097" gradientTransform="matrix(-0.5877 -0.2806 0.1475 -0.309 -1540.0002 -1105.3348)">					<stop offset="0" style="stop-color:#3884D1"></stop>					<stop offset="1" style="stop-color:#50A0E2;stop-opacity:0"></stop>				</linearGradient>				<path class="st6" d="M867.27,577.23c-141.36,18.93-268.78-10.78-361.6-62.67c-97.37-56.14-164.71-140.44-253.96-223.77      C173.29,215.39,88.83,166.9-0.61,135.49c-79.16-30.06-170.92-41.36-243.3-100.15c-7.74-65.48-45.42-72-57.09-136.3      C-57.41-87.11,142.34,51.4,334.49,188.75C528.25,326.69,714.4,463.48,967.8,487.08C923.42,537.79,914.25,526.83,867.27,577.23z"></path>			</g>			<g>									<linearGradient id="SVGID_8_" gradientUnits="userSpaceOnUse" x1="-3407.9138" y1="-975.8916" x2="-1654.8237" y2="-975.8916" gradientTransform="matrix(-0.8446 -0.5354 0.2771 -0.4371 -1647.9297 -1452.0297)">					<stop offset="0" style="stop-color:#50A0E2;stop-opacity:0"></stop>					<stop offset="1" style="stop-color:#3884D1"></stop>				</linearGradient>				<path class="st7" d="M948.97,890.9c-374.9-51-495.15-314.88-747.55-529.91C39.43,221.34-121.37,133.28-287.35,93.07      c-129.07-32.6-284.03-71.1-425.82-145.85c-2.71-124.07-23.81-218.93-35.55-342.62c386.35,84.81,691.76,348.08,984.04,604.66      c295.4,258.17,577.66,509.62,989.57,607.39C1123.15,851.79,1040.76,856.86,948.97,890.9z"></path>			</g>		</g>	</g></g></svg>