<?xml version="1.0" encoding="UTF-8"?>
<svg version="1.1" xmlns="http://www.w3.org/2000/svg" width="50" height="50">
<path d="M0 0 C0.83426514 -0.00630432 1.66853027 -0.01260864 2.52807617 -0.019104 C3.43017822 -0.01505554 4.33228027 -0.01100708 5.26171875 -0.00683594 C6.64870972 -0.00970612 6.64870972 -0.00970612 8.0637207 -0.01263428 C10.02067334 -0.0139966 11.97763499 -0.0102969 13.93457031 -0.00195312 C16.93705465 0.00874572 19.93894062 -0.00184685 22.94140625 -0.01464844 C24.83984508 -0.01332685 26.73828353 -0.01076448 28.63671875 -0.00683594 C29.5388208 -0.0108844 30.44092285 -0.01493286 31.37036133 -0.019104 C32.62175903 -0.00964752 32.62175903 -0.00964752 33.8984375 0 C34.63408936 0.00159119 35.36974121 0.00318237 36.12768555 0.00482178 C37.94921875 0.25878906 37.94921875 0.25878906 39.94921875 2.25878906 C40.25219727 4.58129883 40.25219727 4.58129883 40.328125 7.45019531 C40.36228516 8.47693359 40.39644531 9.50367188 40.43164062 10.56152344 C40.45806641 11.63724609 40.48449219 12.71296875 40.51171875 13.82128906 C40.57138552 15.94771121 40.63497005 18.0740283 40.703125 20.20019531 C40.72705322 21.14580322 40.75098145 22.09141113 40.77563477 23.06567383 C40.70854688 25.23448705 40.70854688 25.23448705 41.94921875 26.25878906 C42.59048099 31.20566919 42.6738484 35.05107297 40.07421875 39.38378906 C35.67986012 42.02040424 31.94995415 42.29172785 26.94921875 41.25878906 C23.82421875 39.00878906 23.82421875 39.00878906 21.94921875 36.25878906 C21.94921875 34.93878906 21.94921875 33.61878906 21.94921875 32.25878906 C21.1720752 32.2692627 20.39493164 32.27973633 19.59423828 32.29052734 C16.08759775 32.33199189 12.58100869 32.35808484 9.07421875 32.38378906 C7.85089844 32.40054688 6.62757812 32.41730469 5.3671875 32.43457031 C3.61728516 32.44423828 3.61728516 32.44423828 1.83203125 32.45410156 C0.75324707 32.4645752 -0.32553711 32.47504883 -1.43701172 32.48583984 C-4.05078125 32.25878906 -4.05078125 32.25878906 -6.05078125 30.25878906 C-6.30957031 27.49316406 -6.30957031 27.49316406 -6.31640625 24.00878906 C-6.31898437 22.76097656 -6.3215625 21.51316406 -6.32421875 20.22753906 C-6.31648437 18.91785156 -6.30875 17.60816406 -6.30078125 16.25878906 C-6.30851563 14.94910156 -6.31625 13.63941406 -6.32421875 12.29003906 C-6.32164063 11.04222656 -6.3190625 9.79441406 -6.31640625 8.50878906 C-6.31415039 7.35894531 -6.31189453 6.20910156 -6.30957031 5.02441406 C-5.89065614 0.54756522 -4.08394054 0.00883341 0 0 Z M-3.05688477 3.65429688 C-4.22631442 5.22759592 -4.22631442 5.22759592 -4.05078125 7.25878906 C9.80921875 7.25878906 23.66921875 7.25878906 37.94921875 7.25878906 C37.45421875 5.27878906 37.45421875 5.27878906 36.94921875 3.25878906 C33.80570665 1.68703301 30.43678358 2.07477555 26.984375 2.05566406 C26.1952623 2.04996399 25.4061496 2.04426392 24.59312439 2.03839111 C22.92285504 2.02893981 21.25256704 2.02240661 19.58227539 2.01855469 C17.02522363 2.00884037 14.4689727 1.97781575 11.91210938 1.94628906 C10.29036936 1.93975984 8.6686236 1.93450905 7.046875 1.93066406 C6.28117691 1.91831726 5.51547882 1.90597046 4.72657776 1.89324951 C0.58446504 1.88762753 0.58446504 1.88762753 -3.05688477 3.65429688 Z M-4.05078125 12.25878906 C-4.05078125 17.20878906 -4.05078125 22.15878906 -4.05078125 27.25878906 C-1.45942977 30.453238 -1.45942977 30.453238 1.40112305 30.59936523 C2.8229187 30.57579956 2.8229187 30.57579956 4.2734375 30.55175781 C5.30146484 30.54208984 6.32949219 30.53242187 7.38867188 30.52246094 C8.46052734 30.49732422 9.53238281 30.4721875 10.63671875 30.44628906 C12.2619043 30.42598633 12.2619043 30.42598633 13.91992188 30.40527344 C16.5968528 30.3698955 19.27278713 30.32053095 21.94921875 30.25878906 C22.21734375 29.12441406 22.48546875 27.99003906 22.76171875 26.82128906 C23.15359375 25.64566406 23.54546875 24.47003906 23.94921875 23.25878906 C27.09852768 22.20901942 29.33736331 22.15747312 32.63671875 22.19628906 C33.63058594 22.2053125 34.62445313 22.21433594 35.6484375 22.22363281 C36.78732422 22.24103516 36.78732422 22.24103516 37.94921875 22.25878906 C37.94921875 18.95878906 37.94921875 15.65878906 37.94921875 12.25878906 C24.08921875 12.25878906 10.22921875 12.25878906 -4.05078125 12.25878906 Z M26.57421875 25.88378906 C24.46215369 28.97065338 24.3372673 30.58708037 24.94921875 34.25878906 C26.44921875 36.75878906 26.44921875 36.75878906 28.94921875 38.25878906 C32.62092745 38.87074051 34.23735443 38.74585412 37.32421875 36.63378906 C39.43628381 33.54692475 39.5611702 31.93049776 38.94921875 28.25878906 C37.44921875 25.75878906 37.44921875 25.75878906 34.94921875 24.25878906 C31.27751005 23.64683761 29.66108307 23.771724 26.57421875 25.88378906 Z " fill="#007fc0" transform="translate(8.05078125,8.7412109375)"/>
<path d="M0 0 C1.32 0 2.64 0 4 0 C4.33 0.66 4.66 1.32 5 2 C6.32 1.34 7.64 0.68 9 0 C9 1.32 9 2.64 9 4 C8.67 4.33 8.34 4.66 8 5 C8.66 5.33 9.32 5.66 10 6 C10 7.32 10 8.64 10 10 C8.68 10 7.36 10 6 10 C5.67 9.34 5.34 8.68 5 8 C3.02 8.99 3.02 8.99 1 10 C1 6 1 6 2 5 C1.34 4.67 0.68 4.34 0 4 C0 2.68 0 1.36 0 0 Z " fill="#007fc0" transform="translate(35,35)"/>
<path d="M0 0 C5.28 0 10.56 0 16 0 C16 0.66 16 1.32 16 2 C10.72 2 5.44 2 0 2 C0 1.34 0 0.68 0 0 Z " fill="#007fc0" transform="translate(9,24)"/>
</svg>
