<svg xmlns="http://www.w3.org/2000/svg" xmlns:xlink="http://www.w3.org/1999/xlink" id="Layer_2" data-name="Layer 2" viewBox="0 0 68.47 68.47"><defs><style>      .cls-1 {        fill: #1e81ce;      }      .cls-1, .cls-2, .cls-3, .cls-4 {        stroke-width: 0px;      }      .cls-2 {        fill: none;      }      .cls-3 {        fill: #fff;      }      .cls-4 {        fill: #9bc9ff;      }      .cls-5 {        clip-path: url(#clippath);      }    </style><clipPath id="clippath"><rect class="cls-2" width="68.47" height="68.47"></rect></clipPath></defs><g id="Layer_1-2" data-name="Layer 1"><g class="cls-5"><g><g id="_77_Computer_Website_Wireframe" data-name="77, Computer, Website, Wireframe"><g><path class="cls-3" d="M61.96,15.58v31.05c0,2.22-1.81,4.03-4.03,4.03H10.54c-2.22,0-4.03-1.81-4.03-4.03V15.58c0-2.22,1.81-4.03,4.03-4.03h47.39c2.22,0,4.03,1.82,4.03,4.03Z"></path><path class="cls-3" d="M14.68,54.5c2.06,0,3.73,1.67,3.73,3.73s-1.67,3.73-3.73,3.73-3.73-1.67-3.73-3.73,1.67-3.73,3.73-3.73Z"></path><path class="cls-4" d="M44.02,58.84c.91,0,1.61.71,1.61,1.61s-.71,1.61-1.61,1.61h-19.56c-.91,0-1.61-.71-1.61-1.61s.71-1.61,1.61-1.61h19.56Z"></path><path class="cls-4" d="M43.71,50.67v.71c0,1.31-1.11,2.42-2.42,2.42h-14.01c-1.31,0-2.42-1.11-2.42-2.42v-.71h18.85Z"></path><rect class="cls-3" x="29.8" y="53.79" width="8.87" height="5.04"></rect><path class="cls-1" d="M59.74,55.71c.5,0,.91.41.91.91s-.41.91-.91.91-.91-.41-.91-.91.41-.91.91-.91Z"></path><path class="cls-1" d="M58.53,5.9c.5,0,.91.41.91.91s-.41.91-.91.91-.91-.41-.91-.91.41-.91.91-.91Z"></path><path class="cls-1" d="M51.58,56.31c.5,0,.91.41.91.91s-.41.91-.91.91-.91-.41-.91-.91.41-.91.91-.91Z"></path><path class="cls-1" d="M35.14,45.93c.2.2.4.5.4.91s-.1.71-.4.91c-.2.2-.5.4-.91.4-.7,0-1.31-.61-1.31-1.31,0-.3.1-.71.4-.91.2-.2.5-.4.91-.4s.71.2.91.4Z"></path><path class="cls-1" d="M32.62,7.22c.5,0,.91.41.91.91s-.41.91-.91.91-.91-.41-.91-.91.41-.91.91-.91Z"></path><path class="cls-1" d="M21.33,52.58c.5,0,.91.41.91.91s-.41.91-.91.91-.91-.41-.91-.91.41-.91.91-.91Z"></path><path class="cls-1" d="M13.16,5.9c.5,0,.91.41.91.91s-.41.91-.91.91-.91-.41-.91-.91.41-.91.91-.91Z"></path><path class="cls-1" d="M7.42,54.4c.5,0,.91.41.91.91s-.41.91-.91.91-.91-.41-.91-.91.41-.91.91-.91Z"></path><path class="cls-1" d="M29.8,54.4h-2.62c-1.71,0-3.13-1.41-3.13-3.13v-.71c0-.3.3-.61.6-.61s.61.3.61.61v.71c0,1.01.81,1.82,1.81,1.82h2.62c.3,0,.6.3.6.6s-.1.71-.5.71Z"></path><path class="cls-1" d="M41.19,54.4h-2.62c-.3,0-.61-.3-.61-.61s.3-.6.61-.6h2.62c1.01,0,1.81-.81,1.81-1.81v-.71c0-.3.3-.6.61-.6s.6.3.6.6v.71c.1,1.61-1.31,3.02-3.02,3.02Z"></path><path class="cls-1" d="M38.67,59.44c-.3,0-.6-.3-.6-.6v-4.44h-7.56v4.44c0,.3-.3.6-.61.6s-.6-.3-.6-.6v-5.04c0-.3.3-.6.6-.6h8.87c.3,0,.61.3.61.6v5.04c-.1.3-.4.6-.71.6Z"></path><path class="cls-1" d="M44.02,62.57h-19.56c-1.21,0-2.22-1.01-2.22-2.22,0-.6.2-1.11.6-1.51.4-.4,1.01-.61,1.51-.61h19.56c1.21,0,2.22,1.01,2.22,2.22,0,.61-.2,1.11-.6,1.51s-.91.6-1.51.6ZM24.46,59.44c-.3,0-.5.1-.71.3s-.3.4-.3.71c0,.5.4.91.91.91h19.56c.3,0,.5-.1.71-.3.2-.2.3-.4.3-.71,0-.5-.4-.91-.91-.91h-19.56Z"></path><path class="cls-1" d="M14.68,62.57c-2.42,0-4.44-2.02-4.44-4.44s2.02-4.44,4.44-4.44,4.44,2.02,4.44,4.44-2.02,4.44-4.44,4.44ZM14.68,55c-1.71,0-3.13,1.41-3.13,3.13s1.41,3.12,3.13,3.12,3.12-1.41,3.12-3.12-1.41-3.13-3.12-3.13Z"></path><path class="cls-1" d="M58.23,43.71H10.34c-.3,0-.6-.3-.6-.6V15.38c0-.3.3-.6.6-.6h47.89c.3,0,.6.3.6.6v27.73c0,.3-.3.6-.6.6ZM10.95,42.4h46.68V15.99H10.95v26.42Z"></path><path class="cls-1" d="M57.93,51.27H10.54c-2.62,0-4.64-2.12-4.64-4.64V15.58c0-2.62,2.12-4.64,4.64-4.64h47.39c2.62,0,4.64,2.12,4.64,4.64v31.05c0,2.52-2.02,4.64-4.64,4.64ZM10.54,12.16c-1.92,0-3.43,1.51-3.43,3.43v31.05c0,1.92,1.51,3.43,3.43,3.43h47.39c1.92,0,3.43-1.51,3.43-3.43V15.58c0-1.92-1.51-3.43-3.43-3.43H10.54Z"></path></g></g><g><g><path class="cls-1" d="M37.13,31.42h-20.16c-1.41,0-2.52-1.11-2.52-2.52,0-.71.3-1.31.71-1.81.5-.5,1.11-.71,1.81-.71h20.16c1.41,0,2.52,1.11,2.52,2.52,0,.71-.3,1.31-.71,1.82-.5.4-1.11.71-1.81.71ZM16.96,27.59c-.3,0-.61.1-.91.4-.2.2-.4.61-.4.91,0,.71.6,1.31,1.31,1.31h20.16c.3,0,.6-.1.91-.4.2-.2.4-.6.4-.91,0-.71-.6-1.31-1.31-1.31h-20.16Z"></path><path class="cls-1" d="M37.13,23.86h-20.16c-1.41,0-2.52-1.11-2.52-2.52,0-.71.3-1.31.71-1.81.5-.5,1.11-.71,1.81-.71h20.16c1.41,0,2.52,1.11,2.52,2.52,0,.71-.3,1.31-.71,1.82-.5.4-1.11.71-1.81.71ZM16.96,20.03c-.3,0-.61.1-.91.4-.2.2-.4.61-.4.91,0,.71.6,1.31,1.31,1.31h20.16c.3,0,.6-.1.91-.4.2-.2.4-.6.4-.91,0-.71-.6-1.31-1.31-1.31h-20.16Z"></path><path class="cls-1" d="M37.13,38.98h-20.16c-1.41,0-2.52-1.11-2.52-2.52,0-.71.3-1.31.71-1.81.5-.5,1.11-.71,1.81-.71h20.16c1.41,0,2.52,1.11,2.52,2.52,0,.71-.3,1.31-.71,1.82-.5.4-1.11.71-1.81.71ZM16.96,35.15c-.3,0-.61.1-.91.4-.2.2-.4.61-.4.91,0,.71.6,1.31,1.31,1.31h20.16c.3,0,.6-.1.91-.4.2-.2.4-.61.4-.91,0-.71-.6-1.31-1.31-1.31h-20.16Z"></path></g><path class="cls-1" d="M45.81,33.33v-.19c.01-1.25.14-2.24.38-2.98.24-.74.58-1.34,1.02-1.79s.98-.87,1.6-1.25c.4-.26.77-.54,1.09-.86s.58-.68.77-1.09c.19-.41.28-.86.28-1.36,0-.6-.14-1.12-.42-1.55-.28-.44-.66-.77-1.12-1.01-.47-.24-.99-.36-1.56-.36-.52,0-1.01.11-1.48.32s-.86.55-1.17,1c-.31.45-.49,1.04-.53,1.75h-3.06c.05-1.21.35-2.23.92-3.07.56-.84,1.31-1.47,2.24-1.9.93-.43,1.96-.65,3.09-.65,1.24,0,2.32.23,3.25.69.93.46,1.65,1.1,2.16,1.93.51.82.77,1.78.77,2.88,0,.75-.12,1.43-.35,2.03-.24.6-.57,1.14-1,1.61s-.95.89-1.56,1.25c-.57.36-1.03.73-1.39,1.11-.35.38-.61.84-.77,1.36-.16.52-.25,1.17-.26,1.95v.19h-2.88ZM47.34,39.46c-.55,0-1.03-.2-1.42-.59-.4-.39-.59-.87-.59-1.43s.2-1.02.59-1.42c.4-.39.87-.59,1.42-.59s1.02.2,1.42.59c.4.39.6.87.6,1.42,0,.37-.09.71-.28,1.01-.18.31-.43.55-.73.73-.3.18-.64.27-1.01.27Z"></path></g></g></g></g></svg>