<?xml version="1.0" encoding="UTF-8"?>
<svg version="1.1" xmlns="http://www.w3.org/2000/svg" width="512" height="512">
<path d="M0 0 C3.50464235 2.84088433 6.78454373 5.8367427 10 9 C10.7734375 9.76054687 11.546875 10.52109375 12.34375 11.3046875 C32.82580035 32.69860996 39.77727397 64.85448485 39.1875 93.6796875 C37.05472304 131.44761279 23.3896576 165.88644415 -2.71484375 193.50390625 C-5.09291307 195.97393737 -5.09291307 195.97393737 -7 199 C-5.40285156 199.78310547 -5.40285156 199.78310547 -3.7734375 200.58203125 C25.94952048 215.51066326 47.00228854 240.1219694 57.5625 271.75 C59.23968562 276.83573244 60.28947308 281.67244753 61 287 C62.2689209 286.95286865 62.2689209 286.95286865 63.56347656 286.90478516 C66.76162296 286.80132342 69.95890542 286.72673582 73.15820312 286.67041016 C74.53153891 286.64059684 75.90469053 286.59992876 77.27734375 286.54736328 C87.94336298 286.1497266 96.56776436 287.55941431 104.92089844 294.62475586 C113.04125047 303.30379012 113.57275523 312.84354503 113.45410156 324.25024414 C113.45297158 325.77864553 113.45360989 327.30704909 113.45587158 328.83544922 C113.45701377 332.96101077 113.43358537 337.08610199 113.40557575 341.21155477 C113.38047901 345.53167251 113.3782136 349.85180242 113.37347412 354.17198181 C113.36106856 362.34224911 113.32827991 370.51230095 113.28807616 378.6824736 C113.24328291 387.98839979 113.22135246 397.29433657 113.20129442 406.60034382 C113.15954497 425.73368446 113.08924025 444.86682487 113 464 C113.88869781 463.99111755 114.77739563 463.98223511 115.69302368 463.9730835 C124.07930352 463.89284483 132.46545393 463.83198847 140.8520298 463.79275131 C145.16340166 463.77190066 149.47445562 463.74362958 153.78564453 463.69824219 C157.9483387 463.65469373 162.11072761 463.63084392 166.27363205 463.62049103 C167.8596413 463.61311574 169.44563436 463.5987133 171.03151321 463.57707977 C173.25786329 463.5479247 175.48296155 463.54404883 177.70947266 463.54589844 C179.60809555 463.53257477 179.60809555 463.53257477 181.54507446 463.51898193 C186.58522394 464.22070558 189.74964909 466.39014016 192.84765625 470.37890625 C194.93568681 475.12829103 194.61920957 479.92248151 194 485 C191.82495098 489.59177016 189.54477327 491.83210772 185 494 C182.15359351 494.28391435 179.53005925 494.40495185 176.68653965 494.38031673 C175.84851141 494.38497665 175.01048316 494.38963657 174.14706013 494.3944377 C171.32619957 494.40643165 168.50581675 494.39697532 165.68495178 494.38768005 C163.64725829 494.39185104 161.60956712 494.39732726 159.57188028 494.40399987 C153.96233723 494.41850399 148.35294048 494.41419425 142.74338925 494.40683305 C136.69762027 494.40211596 130.65188361 494.41459826 124.60612488 494.42485046 C113.4434428 494.4410763 102.28080625 494.44347784 91.11811861 494.43854547 C80.80585093 494.43399103 70.49360066 494.43458406 60.18133354 494.44038582 C58.79889045 494.44114268 57.41644735 494.44189866 56.03400425 494.44265376 C53.95087306 494.44379894 51.86774188 494.44494881 49.7846107 494.44611301 C30.41354264 494.45682052 11.0424804 494.46154066 -8.32858944 494.45364285 C-9.05904102 494.45334567 -9.7894926 494.4530485 -10.54207907 494.45274232 C-16.47413555 494.4502933 -22.40619195 494.44768176 -28.33824835 494.44505819 C-51.47967685 494.43495486 -74.62103279 494.44331176 -97.76245117 494.46655273 C-123.75382444 494.4926136 -149.74515403 494.50547643 -175.73654085 494.49836498 C-178.50686649 494.49764891 -181.27719213 494.49697452 -184.04751778 494.49632454 C-184.72965707 494.49615473 -185.41179637 494.49598492 -186.11460656 494.49580997 C-196.42030759 494.49350514 -206.72596813 494.50149269 -217.03166008 494.51461601 C-228.74927658 494.52951055 -240.46681433 494.53001752 -252.18443459 494.5125451 C-258.16588833 494.50400508 -264.1471604 494.50195864 -270.12860489 494.51719666 C-275.60053941 494.53096441 -281.07213527 494.52638298 -286.54404981 494.50695742 C-288.52716928 494.50317269 -290.51031537 494.50618987 -292.4934113 494.51656907 C-295.18291923 494.52964828 -297.8712425 494.51823704 -300.56069851 494.50057125 C-301.33605384 494.51022176 -302.11140917 494.51987227 -302.91026011 494.52981523 C-308.08295926 494.45974211 -311.01287879 493.26207184 -315 490 C-319.05630398 484.77740143 -318.77397544 479.34659858 -318 473 C-315.82138088 468.40069297 -313.52683514 466.21002375 -309 464 C-305.66532898 463.63923645 -305.66532898 463.63923645 -301.82299805 463.65942383 C-301.12001083 463.65898575 -300.41702362 463.65854767 -299.69273376 463.65809631 C-297.38210736 463.66017699 -295.07221752 463.68347285 -292.76171875 463.70703125 C-291.15461117 463.71262979 -289.54749845 463.71689867 -287.94038391 463.71989441 C-283.72018176 463.7313229 -279.50029166 463.76077266 -275.2802124 463.79400635 C-270.97005433 463.82475043 -266.6598456 463.838409 -262.34960938 463.85351562 C-253.89959673 463.88564449 -245.44983724 463.93681642 -237 464 C-237.00553076 463.21223301 -237.01106152 462.42446602 -237.01675987 461.6128273 C-237.14951579 442.4063996 -237.24867542 423.200064 -237.31087303 403.99327469 C-237.34175423 394.70482104 -237.38382435 385.41667446 -237.45263672 376.12841797 C-237.51261518 368.02866645 -237.55119081 359.92913743 -237.56453097 351.82916999 C-237.57232372 347.54387587 -237.59051679 343.25921803 -237.63438034 338.97412872 C-237.67541405 334.93235658 -237.68760793 330.89147659 -237.67864609 326.84951591 C-237.68028313 325.3741793 -237.69203479 323.89880969 -237.71523285 322.42365456 C-237.87062057 312.02358025 -236.32818036 303.10512553 -229.25946617 295.00566483 C-227.60302854 293.41909132 -225.94599402 292.2113597 -224 291 C-223.41202637 290.63358398 -222.82405273 290.26716797 -222.21826172 289.88964844 C-214.91627742 286.08258472 -207.44014087 286.5495321 -199.4375 286.75 C-198.03322873 286.77010503 -196.62892952 286.7883487 -195.22460938 286.8046875 C-191.81568219 286.85154561 -188.40821043 286.91714495 -185 287 C-184.83781982 285.96117676 -184.83781982 285.96117676 -184.67236328 284.90136719 C-183.63866242 278.7160906 -182.22455434 273.05941032 -179.875 267.25 C-179.57005615 266.48486084 -179.2651123 265.71972168 -178.95092773 264.93139648 C-166.91684595 235.46422438 -146.04624278 212.31843851 -117 199 C-120.94125838 194.34307924 -120.94125838 194.34307924 -125.05078125 189.8359375 C-150.17732992 163.14734761 -163.96301357 124.01081168 -163.18359375 87.515625 C-161.52577438 55.77014779 -153.15019971 27.20365959 -129.82421875 4.44921875 C-95.40314662 -25.40142056 -36.488107 -27.13944604 0 0 Z M-111.78515625 30.72265625 C-124.10207706 43.38714449 -130.17632721 60.49695324 -131 78 C-105.73916994 79.2423359 -84.07121786 70.67398515 -64.3125 55.6875 C-56.95303773 50.26530795 -49.20154827 46.97760575 -40 48 C-33.85493745 49.22901251 -28.41679703 51.70535108 -22.8125 54.4375 C-14.48243745 58.49059673 -5.36168712 62 4 62 C1.63906903 46.78511151 -6.71199542 34.22843275 -18.73046875 24.875 C-27.90189249 18.73424875 -38.03033891 14.41544014 -49 13 C-50.53527344 12.79890625 -50.53527344 12.79890625 -52.1015625 12.59375 C-73.99656568 10.37908301 -95.52763371 15.28699899 -111.78515625 30.72265625 Z M-49.25 82.4375 C-72.93299965 101.83010116 -100.35088729 106.00959449 -130 109 C-125.49516518 135.74101479 -112.38793653 163.51021852 -90 179.9375 C-78.23402583 187.58258623 -66.98138184 191.4377794 -53 189 C-32.72121465 183.9026004 -18.16600212 166.54838792 -7.8125 149.3125 C1.8557151 132.09688637 6.6362291 113.59133125 8 94 C7.32646484 93.87995605 6.65292969 93.75991211 5.95898438 93.63623047 C-10.42393355 90.66843194 -25.28143814 86.92291987 -40.30078125 79.6640625 C-44.5076293 78.02000694 -46.14958351 79.7325448 -49.25 82.4375 Z M-133.1875 248.25 C-142.85038658 259.27579769 -150.11109065 272.55545324 -153 287 C-92.94 287 -32.88 287 29 287 C26.36405697 277.2094983 26.36405697 277.2094983 22.4375 268.125 C21.92521851 267.11481812 21.92521851 267.11481812 21.40258789 266.08422852 C11.16892667 246.62766634 -5.12131248 232.35706229 -26.01123047 225.32275391 C-62.79347686 214.08942557 -106.1047268 219.97722616 -133.1875 248.25 Z M-207 317 C-207 365.51 -207 414.02 -207 464 C-111.3 464 -15.6 464 83 464 C83 415.49 83 366.98 83 317 C-12.7 317 -108.4 317 -207 317 Z " fill="#007fc0" transform="translate(318,18)"/>
<path d="M0 0 C4.61581142 2.18643699 6.72864085 4.49599804 9 9 C9.82885269 14.54808604 9.7240695 19.47140883 7.3125 24.5625 C4.21064779 27.8320199 1.61649202 29.75850523 -2.90234375 30.43359375 C-9.05071801 30.44150672 -13.31314296 30.4465054 -18 26 C-21.88937897 20.55860924 -21.79042609 15.48149391 -21 9 C-16.63929544 -0.20593186 -9.3488659 -1.1401056 0 0 Z " fill="#007fc0" transform="translate(262,385)"/>
</svg>
