<?xml version="1.0" encoding="UTF-8"?>
<svg version="1.1" xmlns="http://www.w3.org/2000/svg" width="512" height="512">
<path d="M0 0 C1.27437933 0.80735581 2.55004139 1.6126894 3.82678223 2.41630554 C4.49943619 2.84420568 5.17209015 3.27210583 5.86512756 3.71297264 C57.76573383 36.2772229 103.65873281 41.5089594 164.17956543 37.75923157 C165.61594707 37.67740883 165.61594707 37.67740883 167.08134651 37.59393311 C168.83797673 37.49114314 170.59386977 37.3740861 172.34826469 37.23838806 C183.23318403 36.61316943 192.14178197 40.64234151 200.18408203 47.7890625 C207.86112107 55.81243413 209.0230693 66.10030798 208.93138123 76.73001099 C208.93691562 77.94179107 208.94245002 79.15357115 208.94815212 80.40207183 C208.95934006 83.73504123 208.95279361 87.06708672 208.93841541 90.39998412 C208.92724549 94.00601793 208.93926788 97.61198797 208.94825745 101.21801758 C208.96215035 108.26952043 208.95466348 115.32084352 208.93958186 122.37233771 C208.92267592 130.59122944 208.92593772 138.81007697 208.92967594 147.02898072 C208.9355471 161.69627727 208.92141125 176.36348783 208.89672852 191.03076172 C208.87280116 205.25084658 208.86572863 219.47081659 208.8762207 233.69091797 C208.88763829 249.19306029 208.88955026 264.69514957 208.87512261 280.19729125 C208.87359683 281.85120193 208.87207648 283.5051126 208.8705616 285.15902328 C208.86980379 285.97268865 208.86904597 286.78635402 208.86826519 287.62467591 C208.86352956 293.34883296 208.86536862 299.07296627 208.869627 304.79712296 C208.87456115 311.77474628 208.86853573 318.75226118 208.8487327 325.72985972 C208.83888346 329.28747129 208.8337299 332.84491802 208.84162521 336.4025383 C208.8500181 340.26342763 208.83505904 344.12402924 208.81785583 347.9848938 C208.8268709 349.66189651 208.8268709 349.66189651 208.83606809 351.37277806 C208.74752992 362.30606951 206.1190951 370.30267039 198.43017578 378.23046875 C188.70381863 386.51321074 178.21594282 387.67932145 165.81054688 387.57104492 C164.46918761 387.57019686 163.12782696 387.57067728 161.78646851 387.57237244 C158.17548088 387.57322684 154.56479732 387.55569211 150.95387983 387.53465056 C147.16894577 387.51579026 143.38400335 387.514126 139.59902954 387.51057434 C132.44527056 387.50128117 125.29165049 387.47670471 118.13795245 387.44652587 C108.46155112 387.40659806 98.78511133 387.39050492 89.1086483 387.37301922 C73.88238692 387.34488133 58.65641855 387.28509386 43.43017578 387.23046875 C43.43017578 411.32046875 43.43017578 435.41046875 43.43017578 460.23046875 C56.36954582 460.03288638 56.36954582 460.03288638 69.30786133 459.7800293 C70.93585571 459.7654196 72.56386841 459.75268006 74.19189453 459.7421875 C75.02998657 459.71660767 75.86807861 459.69102783 76.73156738 459.66467285 C81.16501525 459.6613717 82.86629945 459.78229904 86.45458984 462.63427734 C89.15567993 466.18388089 89.87123687 468.81120962 89.43017578 473.23046875 C87.79605114 476.62441994 86.61504683 478.60435179 83.25812435 480.37823772 C79.74158022 481.43798402 76.44447703 481.51065774 72.80799866 481.49116516 C72.04841919 481.49499071 71.28883972 481.49881626 70.50624269 481.50275773 C67.9652727 481.51306275 65.42452973 481.50910036 62.88354492 481.50512695 C61.06005138 481.5094748 59.23655967 481.51465819 57.41307068 481.52061462 C52.46268797 481.53400772 47.5123816 481.53458297 42.5619843 481.53205132 C38.42919183 481.53098188 34.29641482 481.53586429 30.16362566 481.54065675 C20.41400366 481.5517529 10.66442018 481.55218865 0.91479492 481.54614258 C-9.14347985 481.54010103 -19.20161479 481.55241818 -29.2598657 481.57371265 C-37.8960913 481.59132428 -46.53227237 481.59733072 -55.16851526 481.5940749 C-60.32632503 481.59226129 -65.48403503 481.59490611 -70.64182854 481.60878944 C-75.49195171 481.6213561 -80.34185676 481.61943467 -85.19197655 481.60637856 C-86.97133711 481.60401074 -88.75071297 481.60675481 -90.530056 481.61500168 C-92.96051195 481.62545352 -95.39023386 481.61738141 -97.82066345 481.60469055 C-98.52349219 481.61206484 -99.22632092 481.61943912 -99.9504475 481.62703687 C-104.54233181 481.57665182 -107.6603096 480.62253704 -111.56982422 478.23046875 C-114.37589108 475.06232874 -114.56982422 473.50910681 -114.56982422 469.23046875 C-114.28281135 466.26466912 -113.43442718 465.05218956 -111.59643555 462.63208008 C-107.44282874 459.33619961 -104.48052076 459.58503293 -99.33154297 459.7421875 C-98.55025024 459.7472229 -97.76895752 459.7522583 -96.96398926 459.75744629 C-94.06139124 459.78349434 -91.15931869 459.85330194 -88.25732422 459.91796875 C-81.76044922 460.02109375 -75.26357422 460.12421875 -68.56982422 460.23046875 C-68.56982422 436.14046875 -68.56982422 412.05046875 -68.56982422 387.23046875 C-78.27130859 387.26527344 -87.97279297 387.30007813 -97.96826172 387.3359375 C-104.12060787 387.35126917 -110.27294014 387.36583561 -116.42529297 387.37695312 C-126.18689721 387.39473463 -135.94842361 387.41560675 -145.70996094 387.45678711 C-152.82012704 387.4867679 -159.93022981 387.50606229 -167.04045737 387.51273423 C-170.80234408 387.51663185 -174.56404969 387.52573798 -178.32587814 387.54765892 C-181.87336929 387.56816158 -185.42060632 387.57427504 -188.96815109 387.56979179 C-190.87709562 387.57099871 -192.78601306 387.58706827 -194.69488525 387.60372925 C-205.74863723 387.56436588 -215.01561971 385.51503252 -223.56982422 378.23046875 C-232.31256218 369.21611174 -234.02333705 360.2312507 -233.95750427 347.9848938 C-233.96288981 346.7762337 -233.96827535 345.5675736 -233.97382408 344.32228744 C-233.98560773 340.98881788 -233.98405509 337.6558517 -233.97665727 334.32240272 C-233.97191134 330.71902158 -233.98444803 327.11569314 -233.99467468 323.5123291 C-234.01184042 316.46125605 -234.0127073 309.4102722 -234.00746178 302.35918368 C-234.00341455 296.6257877 -234.00487019 290.89241802 -234.01021004 285.15902328 C-234.01095846 284.34191172 -234.01170688 283.52480015 -234.01247798 282.68292763 C-234.01400952 281.02277247 -234.01554786 279.36261732 -234.01709295 277.70246218 C-234.03081004 262.14582215 -234.02538596 246.58923246 -234.01390774 231.03259359 C-234.00397703 216.8141887 -234.01691461 202.59591398 -234.04084193 188.37752916 C-234.06525023 173.7627272 -234.0748365 159.14798583 -234.0681892 144.53316391 C-234.06470072 136.33420582 -234.06690448 128.13534781 -234.08444023 119.93640518 C-234.09918392 112.95658116 -234.09976949 105.97692768 -234.08236932 98.99710692 C-234.07387451 95.43920668 -234.07167207 91.88161079 -234.08702087 88.32372665 C-234.10348635 84.45900013 -234.08868051 80.59473989 -234.07102966 76.73001099 C-234.08063467 75.61647062 -234.09023968 74.50293026 -234.10013574 73.35564625 C-234.00163233 62.84280764 -231.33711599 53.92243689 -223.98779297 46.2421875 C-215.23113894 38.95676452 -206.5300996 36.92118961 -195.54125977 37.65991211 C-127.86728226 41.64489459 -78.80805703 34.94059978 -21.37466431 -2.13745117 C-13.79069025 -6.55041326 -7.05287033 -4.59053646 0 0 Z M-18.21414185 19.43237305 C-19.19293304 19.92039398 -20.17172424 20.40841492 -21.18017578 20.91122437 C-22.2576709 21.4535672 -23.33516602 21.99591003 -24.4453125 22.5546875 C-25.57701874 23.12039459 -26.70872498 23.68610168 -27.87472534 24.26895142 C-30.98374751 25.82317484 -34.09027339 27.38232949 -37.19638681 28.94235611 C-40.44076698 30.5707849 -43.68740354 32.19470222 -46.93380737 33.8190918 C-53.08356002 36.89707991 -59.23126151 39.97914199 -65.37824333 43.06265926 C-72.37537218 46.57238955 -79.37476514 50.07759295 -86.37435555 53.58241081 C-100.77537719 60.79338257 -115.17353319 68.01005707 -129.56982422 75.23046875 C-129.56982422 75.89046875 -129.56982422 76.55046875 -129.56982422 77.23046875 C-114.56114526 84.85159739 -99.54111197 92.44979127 -84.50713158 100.02087593 C-77.52688731 103.53678243 -70.55057132 107.06009521 -63.58300781 110.60107422 C-57.51022852 113.68729194 -51.43055403 116.75939318 -45.34217799 119.81473434 C-42.11844519 121.43312059 -38.89860867 123.05836653 -35.68693161 124.70056534 C-32.10182996 126.53337359 -28.50169134 128.33448499 -24.89941406 130.13330078 C-23.83630005 130.68283417 -22.77318604 131.23236755 -21.67785645 131.79855347 C-16.35333527 134.55478097 -16.35333527 134.55478097 -10.546875 134.88452148 C-9.56444824 134.33868408 -8.58202148 133.79284668 -7.56982422 133.23046875 C-5.91350278 132.43848438 -4.25546155 131.65009314 -2.59634399 130.86398315 C-0.59798404 129.86769291 1.39817683 128.8669843 3.39257812 127.86279297 C4.48585419 127.31630096 5.57913025 126.76980896 6.70553589 126.20675659 C9.69002031 124.71393869 12.67268951 123.21760216 15.65459776 121.7196517 C18.77615683 120.15260447 21.89999469 118.5901132 25.02359009 117.02713013 C30.93238462 114.0696296 36.83912863 111.10805778 42.74514067 108.14500535 C49.47149821 104.77063418 56.20013847 101.40082699 62.92897105 98.03139472 C76.76524601 91.10281562 90.59865378 84.1685318 104.43017578 77.23046875 C104.43017578 76.57046875 104.43017578 75.91046875 104.43017578 75.23046875 C89.34262294 67.66335701 74.25279836 60.10079774 59.16023445 52.54368591 C52.15293391 49.03487403 45.14639194 45.52456291 38.14160156 42.01074219 C32.03795336 38.94896713 25.93291556 35.88998423 19.82617557 32.83438015 C16.59120186 31.21558689 13.35695299 29.59538101 10.12436295 27.97183228 C6.52029265 26.16177511 2.91313504 24.35795751 -0.69433594 22.5546875 C-1.77183105 22.01234467 -2.84932617 21.47000183 -3.95947266 20.91122437 C-4.93826385 20.42320343 -5.91705505 19.9351825 -6.92550659 19.43237305 C-7.77908689 19.0046611 -8.6326672 18.57694916 -9.51211357 18.13627625 C-13.12972253 16.54379903 -14.81999124 17.73163236 -18.21414185 19.43237305 Z M-210.71870995 63.70329952 C-213.20760613 68.44571773 -213.11469349 72.24247296 -213.05084229 77.51889038 C-213.05426636 78.5505835 -213.05769043 79.58227661 -213.06121826 80.64523315 C-213.06783723 84.11191471 -213.04574926 87.57782271 -213.02392578 91.04443359 C-213.02270045 93.56826566 -213.02323439 96.09209911 -213.02538681 98.61593056 C-213.02619867 104.69231527 -213.00906167 110.76841429 -212.98338149 116.84473727 C-212.95456118 123.8747694 -212.95140141 130.90471892 -212.94824219 137.93481445 C-212.92724795 156.49173671 -212.87140339 175.0486063 -212.81982422 193.60546875 C-212.73732422 235.06171875 -212.65482422 276.51796875 -212.56982422 319.23046875 C-80.56982422 319.23046875 51.43017578 319.23046875 187.43017578 319.23046875 C187.51267578 277.77421875 187.59517578 236.31796875 187.68017578 193.60546875 C187.7165918 180.5039209 187.75300781 167.40237305 187.79052734 153.90380859 C187.80390309 142.1842825 187.80390309 142.1842825 187.81195068 130.4647522 C187.81568511 125.23494223 187.83037568 120.00529745 187.85247803 114.77554321 C187.88060896 108.10948698 187.88815001 101.44370839 187.88246489 94.77758145 C187.88365411 92.32811517 187.8916164 89.87864086 187.9070363 87.42922282 C187.92687221 84.12547833 187.92215867 80.82265513 187.91119385 77.51889038 C187.92284451 76.55612497 187.93449516 75.59335957 187.94649887 74.60141945 C187.8962396 68.98419474 187.26351389 65.64168351 183.43017578 61.23046875 C179.29179057 58.55115534 176.12696489 57.85897008 171.24121094 57.88989258 C170.04041901 57.89011917 168.83962708 57.89034576 167.60244751 57.89057922 C165.68025894 57.91380501 165.68025894 57.91380501 163.71923828 57.9375 C162.38260374 57.9431019 161.045963 57.94736919 159.70932007 57.95036316 C156.20752675 57.96176541 152.70611236 57.99119178 149.20446777 58.0244751 C145.62480799 58.0552764 142.04508641 58.06888988 138.46533203 58.08398438 C131.45345856 58.11606671 124.44183541 58.1672063 117.43017578 58.23046875 C119.74048028 59.99188881 122.03302462 61.61186291 124.49267578 63.16796875 C128.27486473 65.82354823 129.97672431 67.87011433 131.43017578 72.23046875 C131.79861888 77.84922599 131.62207806 81.38758254 128.43017578 86.23046875 C125.61375145 88.83024505 122.85593482 90.57213953 119.43017578 92.23046875 C119.4180455 93.68292999 119.4180455 93.68292999 119.40567017 95.16473389 C119.32820442 104.28761437 119.24046401 113.4103458 119.1426487 122.53303146 C119.0926908 127.22316273 119.04636067 131.91327152 119.00830078 136.60351562 C118.97144163 141.12938118 118.92507989 145.65505854 118.87211227 150.18076324 C118.85357169 151.90789745 118.83846247 153.63507199 118.82683182 155.36226654 C118.8099636 157.78044429 118.78092744 160.19819133 118.74902344 162.61621094 C118.74578316 163.68867569 118.74578316 163.68867569 118.74247742 164.7828064 C118.68136167 168.40592016 118.5050607 171.19322535 116.43017578 174.23046875 C113.49024887 176.24659697 111.36268424 176.45101542 107.86767578 176.04296875 C107.10326172 175.96691406 106.33884766 175.89085937 105.55126953 175.8125 C103.01543115 175.11666221 102.0427515 174.28417461 100.43017578 172.23046875 C99.32001234 168.89997843 99.27164969 166.34101209 99.22485352 162.83129883 C99.21495392 162.18712509 99.20505432 161.54295135 99.19485474 160.8792572 C99.16330112 158.75287535 99.13850673 156.62647117 99.11376953 154.5 C99.09319469 153.02454553 99.07219808 151.54909689 99.05079651 150.07365417 C98.99563053 146.19227824 98.94619716 142.3108496 98.89794922 138.42938232 C98.8476942 134.46784784 98.79202902 130.50638981 98.73681641 126.54492188 C98.62930179 118.77350226 98.52784201 111.00201903 98.43017578 103.23046875 C95.46017578 104.55046875 92.49017578 105.87046875 89.43017578 107.23046875 C89.42803825 108.5501918 89.42803825 108.5501918 89.42585754 109.89657593 C89.40796419 118.22306069 89.36616385 126.5490183 89.29808521 134.87524986 C89.26391979 139.15502181 89.23872162 143.43444075 89.23461914 147.71435547 C89.23031357 151.85144881 89.20166612 155.98774726 89.156744 160.12459183 C89.14384061 161.69603454 89.13943573 163.26757274 89.14402199 164.83906174 C89.1638994 173.72519251 89.03658325 181.82069052 83.43017578 189.23046875 C77.26226878 194.94675124 70.56130878 196.57464959 62.43017578 197.91796875 C61.30385742 198.11874023 60.17753906 198.31951172 59.01708984 198.52636719 C35.61785188 202.57059952 12.27673316 204.46545076 -11.44482422 204.48046875 C-12.89213425 204.48148087 -12.89213425 204.48148087 -14.36868286 204.48251343 C-84.34904006 204.40534326 -84.34904006 204.40534326 -106.25732422 191.66796875 C-114.3053074 183.18495945 -114.30897496 173.50970103 -114.27685547 162.50390625 C-114.28999322 160.90392187 -114.30530377 159.303954 -114.32267761 157.70401001 C-114.36229831 153.52503597 -114.3727031 149.34649805 -114.37670898 145.1673584 C-114.38608405 140.89008546 -114.42352458 136.61306418 -114.45849609 132.3359375 C-114.52283795 123.96744294 -114.55626956 115.59919907 -114.56982422 107.23046875 C-115.63418701 106.71661621 -116.6985498 106.20276367 -117.79516602 105.67333984 C-121.7625989 103.75323286 -125.72056643 101.81426702 -129.67602539 99.86962891 C-131.38543568 99.03246571 -133.0973317 98.20035762 -134.81176758 97.37353516 C-137.28349514 96.18038639 -139.74555047 94.96901377 -142.20654297 93.75390625 C-142.9681926 93.39114594 -143.72984222 93.02838562 -144.51457214 92.65463257 C-149.43967956 90.19388626 -152.39304604 87.75438338 -155.56982422 83.23046875 C-157.24601821 78.20188676 -157.17625156 73.89016464 -155.38232422 68.98046875 C-152.10601451 64.0095161 -147.88659251 61.70338423 -142.56982422 59.23046875 C-142.56982422 58.90046875 -142.56982422 58.57046875 -142.56982422 58.23046875 C-150.28915834 58.16082134 -158.00845969 58.10758283 -165.72803688 58.07503223 C-169.31294514 58.05940596 -172.89763772 58.03822395 -176.48242188 58.00415039 C-179.94484947 57.97144746 -183.40707018 57.95359289 -186.86964035 57.94583702 C-188.82719501 57.93763282 -190.78466698 57.91423082 -192.74209595 57.89057922 C-193.94288788 57.89035263 -195.14367981 57.89012604 -196.38085938 57.88989258 C-197.43342926 57.88323074 -198.48599915 57.87656891 -199.57046509 57.8697052 C-204.45670655 58.45742336 -207.4838337 59.98076489 -210.71870995 63.70329952 Z M-93.56982422 118.23046875 C-93.56982422 137.04046875 -93.56982422 155.85046875 -93.56982422 175.23046875 C-89.4085236 176.894989 -86.24321286 177.75503252 -81.89013672 178.44921875 C-81.25027832 178.55212723 -80.61041992 178.65503571 -79.95117188 178.76106262 C-77.86693528 179.09261288 -75.78128593 179.41323504 -73.69482422 179.73046875 C-72.97276794 179.84063324 -72.25071167 179.95079773 -71.5067749 180.06430054 C-29.13166648 186.4826268 27.75396866 191.5009516 68.43017578 175.23046875 C68.43017578 156.42046875 68.43017578 137.61046875 68.43017578 118.23046875 C57.42917261 123.44147025 46.53147367 128.63000857 35.74658203 134.234375 C33.31269211 135.48436144 30.87626745 136.72937906 28.43994141 137.97460938 C24.69215313 139.89054012 20.94825873 141.8129844 17.2175293 143.76196289 C14.13934261 145.36928886 11.0496199 146.95214644 7.95106316 148.51981926 C6.2388827 149.39389889 4.5393998 150.29271363 2.84046936 151.192276 C-4.39354352 154.82340324 -10.49090886 156.94963452 -18.56982422 155.23046875 C-24.61425803 153.13852404 -30.23625733 150.08615056 -35.89404297 147.13671875 C-37.53249926 146.30500794 -39.17207227 145.47549374 -40.81269836 144.64807129 C-45.09914061 142.47927868 -49.37052483 140.28238097 -53.63909912 138.07867432 C-58.00544116 135.83030895 -62.38456065 133.60713998 -66.76318359 131.3828125 C-71.67384017 128.88766472 -76.58315397 126.39025727 -81.4818573 123.8717041 C-82.22195038 123.49181839 -82.96204346 123.11193268 -83.7245636 122.72053528 C-85.11143244 122.00822186 -86.49747797 121.29430245 -87.88256836 120.57853699 C-90.5933519 118.93880489 -90.5933519 118.93880489 -93.56982422 118.23046875 Z M-212.56982422 340.23046875 C-214.14147477 356.07484334 -214.14147477 356.07484334 -208.56982422 363.23046875 C-204.29557595 366.02233622 -200.97036484 366.60625601 -195.9164896 366.61078548 C-195.27008171 366.6154454 -194.62367382 366.62010532 -193.95767781 366.62490645 C-191.79462088 366.63684434 -189.63219349 366.62746621 -187.46913147 366.6181488 C-185.90151396 366.62232226 -184.33389948 366.62779985 -182.76629061 366.63446862 C-178.46070278 366.64894036 -174.15530609 366.64467312 -169.84970772 366.6373018 C-165.20544577 366.63257672 -160.56122556 366.64507411 -155.91697693 366.65531921 C-146.81944047 366.67252536 -137.72197303 366.67334348 -128.62442452 366.66810631 C-121.23093182 366.66406685 -113.83745954 366.6655055 -106.44396782 366.67085457 C-104.86626291 366.6719772 -104.86626291 366.6719772 -103.25668518 366.67312251 C-101.1200345 366.67465397 -98.98338382 366.67619232 -96.84673315 366.67773748 C-76.80457584 366.69146903 -56.76245756 366.68602017 -36.72030114 366.67455227 C-18.37983719 366.66461861 -0.0394741 366.6775617 18.3009743 366.70148646 C37.12834517 366.72586157 55.95566903 366.73548928 74.78305537 366.72883373 C85.35506884 366.72533806 95.92700471 366.72759659 106.49900627 366.74508476 C115.49847114 366.75978685 124.49780377 366.76046826 133.49726599 366.74301385 C138.08953699 366.73448515 142.68157157 366.73239984 147.27383041 366.74766541 C151.47765658 366.76146685 155.68104276 366.75680821 159.88484318 366.73742617 C161.40563838 366.73365185 162.92646845 366.73662926 164.44723272 366.74703782 C175.17829146 367.00889582 175.17829146 367.00889582 184.43017578 362.23046875 C188.88791375 355.77273078 188.88791375 355.77273078 187.43017578 340.23046875 C55.43017578 340.23046875 -76.56982422 340.23046875 -212.56982422 340.23046875 Z M-47.56982422 387.23046875 C-47.56982422 411.32046875 -47.56982422 435.41046875 -47.56982422 460.23046875 C-24.46982422 460.23046875 -1.36982422 460.23046875 22.43017578 460.23046875 C22.43017578 436.14046875 22.43017578 412.05046875 22.43017578 387.23046875 C-0.66982422 387.23046875 -23.76982422 387.23046875 -47.56982422 387.23046875 Z " fill="#007fc0" transform="translate(268.56982421875,17.76953125)"/>
<path d="M0 0 C0.86797767 -0.00438225 1.73595535 -0.00876451 2.63023537 -0.01327956 C5.55591649 -0.02669733 8.48156748 -0.03285306 11.40727234 -0.03897095 C13.49795163 -0.04686949 15.58862956 -0.05513829 17.67930603 -0.06375122 C24.5595621 -0.08999734 31.43982435 -0.10528024 38.32011414 -0.11953735 C40.68563021 -0.12489574 43.05114623 -0.13027324 45.41666222 -0.13566971 C55.25353244 -0.15730116 65.09040101 -0.17603947 74.92728901 -0.1872921 C89.04111201 -0.20354162 103.15466015 -0.23674091 117.26837951 -0.29369295 C127.18349031 -0.33234358 137.09852745 -0.35191894 147.01371163 -0.35721266 C152.94012637 -0.36087245 158.86624813 -0.37296069 164.79258156 -0.4053154 C170.36664836 -0.43531047 175.94024357 -0.44173835 181.51437378 -0.42993164 C183.56185345 -0.4297102 185.60935447 -0.43807347 187.65675926 -0.45558548 C190.44931708 -0.47817364 193.24014985 -0.47003052 196.03271484 -0.45410156 C196.84555838 -0.46798365 197.65840192 -0.48186574 198.49587709 -0.49616849 C202.60010006 -0.43836849 204.45346462 -0.05128545 207.68646526 2.56690025 C210.31155626 5.92822423 210.90108126 7.35091055 210.58183289 11.52890015 C210.1446484 15.06044232 209.90405246 15.9406898 207.39433289 18.65390015 C202.50761656 21.38136972 197.99890425 21.30045184 192.49032593 21.29434204 C191.65471896 21.29731316 190.81911198 21.30028429 189.95818359 21.30334544 C187.15393092 21.3120276 184.34972098 21.31354028 181.54545593 21.31503296 C179.53654387 21.31966144 177.52763269 21.32468615 175.51872253 21.33007812 C170.05792008 21.34320051 164.59712991 21.34964668 159.13631415 21.35408878 C155.72506847 21.35701955 152.31382616 21.36112435 148.90258217 21.36559296 C138.23080323 21.37926697 127.55903197 21.38893431 116.88724488 21.39279485 C104.56578618 21.3972766 92.24443837 21.4148304 79.92301339 21.44379544 C70.40018221 21.46540508 60.87738225 21.47549873 51.35452682 21.47683597 C45.66625667 21.47788443 39.97809077 21.4838013 34.28984642 21.50165558 C28.93907848 21.51812394 23.58849328 21.5202977 18.23770905 21.51151657 C16.27493361 21.51074556 14.31214839 21.51509734 12.34939766 21.52497482 C9.66747765 21.53767896 6.98620639 21.53182587 4.30429077 21.52139282 C3.52976474 21.52944923 2.75523871 21.53750563 1.95724219 21.54580617 C-3.16745805 21.49926189 -6.7383987 20.54898322 -11.29316711 18.15390015 C-13.56359428 15.44403546 -14.21152487 13.7020695 -14.73066711 10.21640015 C-14.17710389 6.34145755 -12.70143181 4.19964667 -10.29316711 1.15390015 C-7.06837373 -0.45849655 -3.54332351 0.00215209 0 0 Z " fill="#007fc0" transform="translate(190.2931671142578,293.8460998535156)"/>
<path d="M0 0 C0.8452121 -0.00571014 1.69042419 -0.01142029 2.56124878 -0.01730347 C3.48029495 -0.01842133 4.39934113 -0.01953918 5.34623718 -0.02069092 C6.32068787 -0.02565582 7.29513855 -0.03062073 8.29911804 -0.03573608 C11.52275804 -0.05034082 14.74634883 -0.05715685 17.97001648 -0.06268311 C20.21197511 -0.06843586 22.45393373 -0.07419358 24.69589233 -0.07995605 C29.39753956 -0.09046118 34.09916971 -0.09630708 38.80082703 -0.09979248 C44.81990708 -0.10527674 50.83876086 -0.12930557 56.85776997 -0.15776443 C61.48950863 -0.17640468 66.12119293 -0.18159716 70.75296593 -0.18312836 C72.97168909 -0.18615217 75.19041137 -0.1941715 77.40909767 -0.20731354 C80.51592262 -0.22440299 83.62219656 -0.22248654 86.72904968 -0.21600342 C87.64202316 -0.2252182 88.55499664 -0.23443298 89.49563599 -0.243927 C95.73543529 -0.20322002 100.85862498 0.54537457 105.66923523 4.89044189 C107.20928148 8.1517163 107.10687754 10.57658993 106.73173523 14.14044189 C105.08034218 17.6791413 104.01568294 18.95114342 100.73173523 21.14044189 C98.67426491 21.40050411 98.67426491 21.40050411 96.26655579 21.41459656 C95.3525148 21.42457169 94.43847382 21.43454681 93.49673462 21.44482422 C92.49614517 21.44548889 91.49555573 21.44615356 90.46464539 21.44683838 C89.40909958 21.4551619 88.35355377 21.46348541 87.26602173 21.47206116 C83.7675765 21.49620817 80.26931752 21.50493893 76.77079773 21.51153564 C74.34325605 21.52049811 71.91571495 21.52961988 69.48817444 21.53889465 C64.39551957 21.55539981 59.30293057 21.56308761 54.21025085 21.565979 C47.68072352 21.57136548 41.15181406 21.60905088 34.62246132 21.65472317 C29.60733269 21.68444691 24.5923537 21.69170155 19.57714462 21.69270515 C17.16974939 21.69691644 14.76235407 21.70938684 12.35504532 21.7302227 C8.98877103 21.75703966 5.62394024 21.75233956 2.25761414 21.73980713 C1.26107315 21.75464142 0.26453217 21.76947571 -0.76220703 21.78475952 C-5.45911787 21.73489552 -7.55980678 21.69259825 -11.3636322 18.72798157 C-14.43478735 14.55566197 -14.46572528 12.37025274 -13.84248352 7.33575439 C-13.26826477 5.14044189 -13.26826477 5.14044189 -10.95576477 2.64044189 C-7.25651058 0.57574188 -4.20404973 0.0170835 0 0 Z " fill="#007fc0" transform="translate(190.2682647705078,244.85955810546875)"/>
<path d="M0 0 C1.26972656 -0.00515625 2.53945312 -0.0103125 3.84765625 -0.015625 C5.16636719 -0.00015625 6.48507813 0.0153125 7.84375 0.03125 C9.82181641 0.00804687 9.82181641 0.00804687 11.83984375 -0.015625 C13.74443359 -0.00789063 13.74443359 -0.00789063 15.6875 0 C17.42290039 0.00676758 17.42290039 0.00676758 19.19335938 0.01367188 C22.98881448 0.63722774 24.65038094 1.82807796 27.34375 4.53125 C28.54565901 8.13697704 28.67045315 10.7414935 28.34375 14.53125 C26.51981483 17.68806088 25.17870408 19.15754599 21.84765625 20.6484375 C17.15646896 21.83038658 12.72510892 21.86063458 7.90625 21.84375 C6.99037109 21.85986328 6.07449219 21.87597656 5.13085938 21.89257812 C-0.57924385 21.89667727 -4.61881153 21.27230677 -9.65625 18.53125 C-11.89154288 16.15625132 -12.59514521 14.59867425 -12.78125 11.34765625 C-12.46494708 5.3280164 -12.46494708 5.3280164 -9.52148438 2.42797852 C-6.0645549 0.13955954 -4.1160058 0.01605128 0 0 Z " fill="#007fc0" transform="translate(123.65625,293.46875)"/>
<path d="M0 0 C0.92490234 -0.020625 1.84980469 -0.04125 2.80273438 -0.0625 C9.32181099 -0.09956653 14.58996878 0.45222986 19.625 5 C21.16504625 8.26127441 21.06264231 10.68614803 20.6875 14.25 C19.03610695 17.7886994 17.97144771 19.06070153 14.6875 21.25 C10.58070506 21.68043491 6.47341225 21.66402677 2.34570312 21.67553711 C0.32558471 21.68742301 -1.69146482 21.73659792 -3.7109375 21.78710938 C-4.9896875 21.79419922 -6.2684375 21.80128906 -7.5859375 21.80859375 C-8.75560059 21.82204834 -9.92526367 21.83550293 -11.13037109 21.84936523 C-15.23537489 21.07617325 -16.69051475 19.42034893 -19.3125 16.25 C-21.06386273 12.74727453 -20.28082792 8.95204278 -19.3125 5.25 C-13.89009846 -0.61205572 -7.45556688 0.04104923 0 0 Z " fill="#007fc0" transform="translate(131.3125,244.75)"/>
</svg>
